# xmcd
#
# Track frame offsets:
#	150
#	12567
#	24877
#	35380
#	46817
#	55590
#	67650
#	80670
#	95175
#	108640
#	120475
#
# Disc length: 1757
#
# Revision: 2
# Processed by: cddbd v1.5.1PL0 Copyright (c) Steve Scherf et al.
# Submitted via: DiscPlay 4.0.4
# Normalized: r1:TSWAP
#
DISCID=8306db0b
DTITLE=Various Artist - More Soul Gold!
DYEAR=1900
DGENRE=
TTITLE0=Dyke and The Blazers - We Got More Soul
TTITLE1=Dyke and The Blazers - Let A Woman Be A Woman - Let A Man Be A Man
TTITLE2=Brenton Wood - Gimme Little Sign
TTITLE3=Brenton Wood - The Oogum Boogum Song
TTITLE4=Brenton Wood - Baby You Got It
TTITLE5=Dyke and The Blazers - Funky Broadway Pt. 1
TTITLE6=Dyke and The Blazers - Funky Broadway Pt. 2
TTITLE7=The Jaynetts - SAlly, Bo 'Round the Roses
TTITLE8=The Corsairs - Smoky Places
TTITLE9=The Skyliners - Since I Don't Have You
TTITLE10=The Skyliners - This I Swear
EXTD=
EXTT0=
EXTT1=
EXTT2=
EXTT3=
EXTT4=
EXTT5=
EXTT6=
EXTT7=
EXTT8=
EXTT9=
EXTT10=
PLAYORDER=
